<?xml version="1.0" standalone="no"?>
<!DOCTYPE svg PUBLIC "-//W3C//DTD SVG 20010904//EN"
 "http://www.w3.org/TR/2001/REC-SVG-20010904/DTD/svg10.dtd">
<svg version="1.0" xmlns="http://www.w3.org/2000/svg"
 width="500.000000pt" height="77.000000pt" viewBox="0 0 500.000000 77.000000"
 preserveAspectRatio="xMidYMid meet">

<g transform="translate(0.000000,77.000000) scale(0.100000,-0.100000)"
fill="#000000" stroke="none">
<path d="M4070 654 c0 -97 -1 -106 -17 -99 -10 4 -48 10 -85 12 -118 10 -152
-33 -152 -192 0 -113 15 -162 59 -191 36 -24 104 -22 153 4 40 21 41 21 47 2
5 -16 15 -20 51 -20 l44 0 0 295 0 295 -50 0 -50 0 0 -106z m-17 -170 c15 -5
17 -19 17 -109 l0 -103 -31 -11 c-79 -28 -116 -5 -120 74 -5 90 0 124 22 146
21 21 49 21 112 3z"/>
<path d="M282 697 c-12 -13 -24 -37 -28 -54 -4 -21 -16 -35 -40 -46 -30 -15
-37 -15 -69 -1 -43 18 -79 10 -105 -23 -30 -39 -26 -88 10 -125 41 -41 41 -89
0 -128 -63 -59 -24 -160 62 -160 13 0 34 7 46 16 21 14 25 14 56 -5 22 -14 37
-33 45 -61 28 -95 158 -87 178 10 3 19 17 37 39 51 31 19 35 19 56 5 28 -20
61 -20 97 -1 33 17 41 33 41 82 0 26 -8 42 -30 63 -23 21 -30 37 -30 65 0 28
7 42 30 62 25 20 30 32 30 67 0 71 -59 109 -125 82 -32 -14 -39 -14 -69 1 -24
11 -36 25 -40 46 -10 49 -43 77 -91 77 -30 0 -47 -6 -63 -23z m92 -36 c31 -34
0 -80 -45 -66 -27 9 -34 43 -13 66 9 10 22 19 29 19 7 0 20 -9 29 -19z m-79
-103 c23 -10 25 -17 25 -70 0 -32 -3 -58 -7 -58 -5 0 -32 14 -60 30 -65 37
-71 67 -20 93 17 8 33 16 34 16 1 1 14 -4 28 -11z m160 -5 c54 -26 48 -55 -17
-93 -29 -16 -56 -30 -60 -30 -5 0 -8 26 -8 58 0 57 7 69 47 81 1 1 18 -7 38
-16z m-324 -3 c26 -14 25 -56 -2 -70 -41 -23 -80 20 -53 58 17 25 27 27 55 12z
m481 -7 c23 -21 23 -36 -2 -58 -17 -15 -24 -16 -45 -7 -30 14 -34 56 -7 71 24
14 33 13 54 -6z m-349 -143 l30 -18 -62 -31 c-78 -40 -101 -32 -101 33 0 35 4
45 23 53 23 11 41 5 110 -37z m297 -16 c0 -65 -23 -73 -101 -33 l-62 31 58 33
c49 27 63 31 82 22 19 -8 23 -18 23 -53z m-240 -103 c0 -50 -3 -61 -22 -74
-21 -14 -26 -13 -60 6 -56 31 -52 58 15 95 28 16 55 30 60 31 4 0 7 -25 7 -58z
m115 28 c68 -38 73 -64 17 -95 -36 -21 -38 -21 -60 -4 -18 15 -22 28 -22 74 0
31 2 56 5 56 3 0 30 -14 60 -31z m-297 -31 c30 -30 0 -75 -42 -64 -27 7 -38
35 -24 60 11 19 49 21 66 4z m482 -8 c8 -14 8 -26 0 -40 -19 -35 -80 -20 -80
20 0 40 61 55 80 20z m-234 -125 c9 -23 -15 -55 -42 -55 -17 0 -28 8 -36 26
-11 23 -10 29 11 45 18 15 27 16 42 8 11 -6 22 -16 25 -24z"/>
<path d="M2735 643 c-11 -66 -16 -74 -46 -85 -23 -8 -29 -16 -29 -39 0 -26 4
-29 30 -29 l30 0 0 -102 c1 -186 19 -218 126 -218 64 0 64 0 64 28 0 24 -6 31
-38 44 -46 18 -52 37 -52 164 l0 84 45 0 45 0 0 40 0 40 -45 0 -45 0 0 55 0
55 -40 0 c-37 0 -39 -2 -45 -37z"/>
<path d="M2058 570 c-82 -10 -88 -13 -88 -52 l0 -31 89 7 c106 9 131 0 131
-44 0 -33 2 -33 -95 -35 -80 -2 -109 -14 -130 -55 -38 -74 -6 -171 63 -189 41
-11 117 4 147 29 11 9 16 7 25 -9 8 -16 21 -21 50 -21 l40 0 0 160 c0 102 -4
168 -12 185 -23 51 -99 70 -220 55z m132 -259 c0 -41 -12 -50 -81 -66 -32 -8
-59 16 -59 50 0 39 25 55 86 55 l54 0 0 -39z"/>
<path d="M933 555 c-49 -34 -54 -162 -9 -204 19 -18 41 -24 112 -29 l89 -7 0
-30 0 -30 -107 -3 -108 -3 0 -33 c0 -32 3 -35 38 -40 37 -5 167 -10 210 -7 13
0 34 12 47 26 21 21 25 33 25 89 0 54 -4 70 -24 93 -22 26 -31 28 -113 33
l-88 5 0 35 0 35 103 3 102 3 0 33 c0 31 -3 34 -37 40 -76 12 -217 7 -240 -9z"/>
<path d="M1290 370 l0 -200 55 0 55 0 0 144 c0 138 1 146 22 160 27 19 89 21
106 4 8 -8 12 -58 12 -160 l0 -148 50 0 50 0 0 144 c0 138 1 146 22 160 27 19
99 21 116 4 8 -8 12 -58 12 -160 l0 -148 51 0 50 0 -3 176 -3 176 -28 24 c-38
33 -116 33 -179 1 l-46 -23 -26 23 c-36 30 -110 31 -168 2 -33 -17 -42 -18
-49 -7 -5 7 -9 16 -9 21 0 4 -20 7 -45 7 l-45 0 0 -200z"/>
<path d="M2360 370 l0 -200 50 0 50 0 0 129 c0 128 0 130 26 150 20 15 41 21
80 21 l54 0 0 50 0 50 -37 0 c-21 0 -54 -11 -79 -25 l-43 -26 -7 26 c-5 22
-11 25 -50 25 l-44 0 0 -200z"/>
<path d="M2970 370 l0 -200 50 0 50 0 0 145 c0 137 1 145 21 156 47 25 82 29
106 14 22 -15 23 -20 23 -165 l0 -150 50 0 50 0 0 160 c0 215 -13 240 -122
240 -36 0 -64 -7 -88 -21 l-34 -21 -14 21 c-11 15 -25 21 -53 21 l-39 0 0
-200z"/>
<path d="M3460 553 c-53 -27 -70 -71 -70 -183 0 -157 38 -201 173 -201 148 0
182 36 182 196 0 110 -11 144 -58 179 -40 30 -176 35 -227 9z m165 -77 c14
-10 19 -30 22 -92 5 -108 -6 -128 -74 -132 -73 -4 -83 9 -83 111 0 105 13 127
74 127 23 0 50 -6 61 -14z"/>
<path d="M4313 555 c-53 -23 -67 -56 -71 -169 -4 -115 10 -169 51 -199 21 -16
41 -19 118 -18 52 0 108 4 126 7 30 6 33 10 33 40 l0 33 -101 -2 c-89 -2 -102
0 -115 17 -8 11 -14 30 -14 43 0 22 2 23 95 23 88 0 98 2 120 25 21 20 25 34
25 80 0 70 -20 109 -61 124 -44 15 -167 13 -206 -4z m160 -79 c4 -6 6 -24 5
-41 -3 -30 -3 -30 -70 -33 l-68 -3 0 29 c0 33 17 58 45 65 28 7 78 -3 88 -17z"/>
<path d="M4665 545 c-22 -21 -25 -33 -25 -92 0 -45 5 -76 15 -90 20 -28 73
-43 153 -43 l63 0 -3 -32 -3 -33 -107 -3 -108 -3 0 -33 c0 -30 3 -34 33 -40
17 -3 79 -6 136 -7 102 -2 105 -1 128 25 39 46 29 182 -16 202 -9 5 -54 10
-101 13 l-85 6 0 35 0 35 103 3 102 3 0 33 c0 31 -3 34 -37 40 -21 3 -80 6
-131 6 -85 0 -95 -2 -117 -25z"/>
</g>
</svg>
