<?xml version="1.0" encoding="UTF-8"?>
<svg width="79px" height="69px" viewBox="0 0 79 69" version="1.1" xmlns="http://www.w3.org/2000/svg" xmlns:xlink="http://www.w3.org/1999/xlink">
    <!-- Generator: Sketch 64 (93537) - https://sketch.com -->
    <title>Fill 1</title>
    <desc>Created with Sketch.</desc>
    <defs>
        <linearGradient x1="-30.6934874%" y1="28.8380795%" x2="141.191609%" y2="50%" id="linearGradient-1">
            <stop stop-color="#9C27B0" offset="0%"></stop>
            <stop stop-color="#E1BEE7" offset="100%"></stop>
        </linearGradient>
    </defs>
    <g id="Landing" stroke="none" stroke-width="1" fill="none" fill-rule="evenodd">
        <g transform="translate(-1232.000000, -3586.000000)" fill="url(#linearGradient-1)" id="Benefit">
            <g transform="translate(0.000000, 3076.000000)">
                <g id="Deco" transform="translate(56.000000, 0.000000)">
                    <path d="M1181,559.764825 C1181,562.612352 1182.52312,565.243717 1184.99573,566.66748 L1211.50427,581.932177 C1213.97688,583.355941 1217.02312,583.355941 1219.49573,581.932177 L1246.00427,566.66748 C1248.47688,565.243717 1250,562.612352 1250,559.764825 L1250,529.235303 C1250,526.387648 1248.47688,523.756411 1246.00427,522.33252 L1219.49573,507.067823 C1217.02312,505.644059 1213.97688,505.644059 1211.50427,507.067823 L1184.99573,522.33252 C1182.52312,523.756411 1181,526.387648 1181,529.235303 L1181,559.764825 Z" id="Fill-1" transform="translate(1215.500000, 544.500000) rotate(-330.000000) translate(-1215.500000, -544.500000) "></path>
                </g>
            </g>
        </g>
    </g>
</svg>